<svg width="1355" height="1253" viewBox="0 0 1355 1253" fill="none" xmlns="http://www.w3.org/2000/svg">
<g opacity="0.1">
<path d="M581.482 169.007C585.619 167.436 590.075 165.745 594.212 164.175C623.143 155.014 650.858 160.88 678.234 171.608C703.535 181.667 729.506 189.652 754.215 201.028C787.585 216.036 802.672 242.352 803.371 277.771C804.389 313.069 799.787 347.951 793.67 382.68C792.694 387.784 792.037 392.767 791.819 397.948C790.943 408.112 798.528 411.787 805.356 415.385C813.621 419.894 816.66 412.551 820.029 407.995C835.401 386.139 849.895 363.888 864.389 341.637C875.559 325.017 879.55 306.752 879.71 287.028C880.293 243.476 875.695 199.706 879.944 156.219C880.404 151.675 880.546 147.251 881.324 142.586C883.417 127.955 889.945 116.374 905.552 113.363C921.038 110.034 931.192 118.56 939.646 130.28C959.321 158.133 965.069 190.543 971.771 222.591C978.353 254.32 984.177 285.973 986.577 318.198C988.724 346.877 982.649 372.123 962.733 393.519C937.659 420.514 915.385 450.088 891.431 478.115C889.171 480.793 886.789 483.154 884.968 486.03C883.344 488.467 882.28 491.419 884.322 493.921C886.485 496.742 889.668 495.534 892.093 494.249C896.626 491.8 900.477 488.518 904.329 485.235C930.897 463.135 960.187 444.371 986.513 421.634C1013.79 398.534 1044.78 394.785 1077.42 407.883C1124.44 427.178 1166.03 456.178 1204.13 489.415C1212.29 496.515 1215.32 507.38 1222.45 515.599C1226.07 525.148 1229.7 534.696 1233.32 544.244C1233.04 563.649 1223.95 573.288 1205.03 574.28C1195.79 574.875 1187.05 572.001 1178.71 568.249C1147.66 554.547 1116.36 540.209 1088.63 520.876C1066.9 505.822 1046.38 507.418 1025.07 518.421C997.316 532.597 968.957 545.181 941.807 560.949C933.181 566.043 917.969 568.176 921.737 583.86C925.747 600.18 939.509 594.228 950.068 594.226C968.837 594.748 987.231 591.407 1006.2 591.491C1036.16 591.77 1050.71 602.27 1062.49 629.476C1072.38 652.666 1078.1 676.351 1079.04 701.847C1079.94 729.177 1085.35 755.891 1087.97 782.934C1088.59 790.343 1089.54 797.631 1089.09 805.083C1087.93 824.094 1078.98 836.959 1064.77 839.805C1051.19 842.41 1037.61 834.455 1028.9 819.19C1019.59 802.333 1011.24 785.114 1004.99 766.731C998.495 747.711 988.426 730.778 977.403 714.207C973.154 707.809 968.147 701.334 960.562 697.659C937.609 687.073 922.969 692.63 915.214 716.328C904.433 750.279 886.263 780.115 864.9 808.251C846.192 832.83 822.356 850.616 793.349 860.534C778.149 865.575 769.776 874.215 762.623 888.946C743.623 930.022 748.197 967.975 770.541 1005.74C778.524 1019.09 783.323 1033.66 788.123 1048.22C791.715 1059.6 791.201 1070.72 782.313 1079.92C774.993 1082.7 767.354 1085.6 760.034 1088.38C744.141 1089.68 731.561 1082.43 720.88 1071.56C696.277 1047.03 674.693 1019.91 658.036 989.453C645.792 966.791 641.671 942.502 648.822 917.212C651.651 907.399 654.481 897.586 656.992 887.894C658.604 882.549 664.475 875.951 657.164 871.079C649.974 866.526 644.256 871.609 639.736 876.966C625.065 894.915 609.395 912.15 594.846 930.417C575.698 954.799 568.636 982.24 567.084 1012.69C565.128 1051.66 562.097 1090.68 552.567 1128.89C550.254 1138.14 547.622 1147.52 542.355 1155.71C527.543 1178.08 499.927 1177.27 487.322 1153.66C481.14 1142.17 476.428 1129.75 475.141 1116.77C469.521 1066.47 465.734 1016.2 472.067 965.732C476.077 932.167 488.429 902.354 512.197 877.675C525.332 864.315 537.907 850.439 550.482 836.562C554.29 832.204 560.172 828.515 560.335 819.35C540.678 826.083 524.426 836.985 507.69 846.615C472.232 867.356 433.797 881.216 395.363 895.076C376.146 902.006 355.972 898.74 336.293 899.655C302.191 900.947 268.243 900.724 234.436 896.078C211.474 893.142 191.365 886.21 180.121 864.261C176.859 855.667 173.718 847.392 170.456 838.799C167.576 815.86 174.269 805.673 197.437 800.52C220.924 795.247 244.588 794.275 268.581 796.092C279.821 796.924 291.258 797.316 302.223 799.344C348.038 807.807 388.217 791.828 426.419 769.682C443.989 759.371 462.843 751.487 481.28 738.663C459.844 738.788 440.978 743.765 421.826 747.029C392.203 752.446 362.086 753.682 332.11 750.495C306.799 748.086 290.212 735.084 277.969 712.421C255.295 671.871 247.744 627.036 234.662 583.937C229.456 567.343 225.084 550.068 224.257 532.54C223.904 523.935 223.99 515.527 225.59 507.273C228.517 491.961 235.199 478.866 251.958 475.053C269.354 470.999 281.78 479.755 290.641 493.506C299.743 507.893 307.89 522.643 313.931 538.556C323.353 563.382 333.215 588.404 342.32 613.35C350.458 635.75 364.137 648.764 390.346 646.827C412.254 645.066 434.568 645.335 456.475 643.574C467.429 642.693 470.753 637.062 471.311 627.019C471.945 616.219 466.434 613.213 457.543 611.854C412.607 603.785 385.161 575.606 370.653 534.505C362.877 513.06 353.127 496.005 334.223 481.697C309.447 463.428 291.177 438.319 282.17 407.875C276.799 389.886 279.299 377.286 290.975 367.756C304.516 356.426 318.741 356.489 333.714 364.278C344.932 369.851 354.011 378.421 364.44 385.751C372.871 391.654 379.127 391.828 385.546 382.838C402.707 359.938 422.349 339.738 446.152 323.785C453.065 318.976 454.48 314.07 451.263 306.552C448.287 299.671 445.431 293.108 442.137 286.347C435.307 272.19 433.218 258.054 443.763 244.584C452.882 233.112 470.837 229.574 487.555 235.245C504.59 240.795 519.53 250.417 532.21 262.718C545.45 275.535 559.984 283.127 578.555 284.089C588.159 284.449 597.259 288.277 606.709 290.152C644.435 298.408 666.326 322.506 677.069 358.483C677.673 360.074 677.64 361.907 678.244 363.498C679.903 369.787 684.338 372.837 690.912 372.891C697.487 372.944 699.22 367.917 701.074 363.208C714.357 327.215 706.505 306.527 673.124 288.611C650.445 276.829 629.072 262.729 608.017 248.51C594.833 239.677 583.273 228.407 574.018 215.535C559.075 195.354 561.256 182.874 581.482 169.007Z" fill="#333333"/>
<path d="M555.979 437.579C554.365 432.366 553.387 426.912 552.408 421.457C550.968 409.987 547.574 398.167 530.673 406.403C523.079 410.378 515.219 407.899 512.836 399.701C510.573 391.821 515.445 384.51 523.929 383.838C540.897 382.495 546.131 376.139 538.016 359.557C536.007 355.222 535.489 345.223 544.883 343.113C552.884 341.169 559.471 344.131 560.384 353.251C561.87 376.355 573.001 379.777 592.854 372.605C600.175 369.827 607.091 375.577 608.201 384.258C609.63 392.819 602.024 393.885 596.613 395.939C595.022 396.543 593.386 396.072 591.674 396.357C572.478 398.546 569.428 402.981 575.601 422.121C576.809 425.304 579.213 428.761 578.786 431.472C577.459 438.53 582.038 447.715 573.05 451.855C567.244 454.787 559.966 448.082 555.979 437.579Z" fill="#FEFEFE"/>
<path d="M497.666 492.121C494.407 494.086 491.015 492.824 487.909 493.275C477.273 494.035 471.677 499.436 474.83 510.62C476.972 518.182 476.886 526.589 467.765 527.502C459.402 528.492 452.574 524.893 453.164 513.017C453.765 504.05 447.453 499.892 437.938 501.683C430.453 503.068 423.165 504.013 421.011 493.543C418.616 482.436 427.858 481.841 434.344 479.743C445.088 476.393 451.486 472.144 448.564 458.688C447.179 451.203 452.929 444.287 461.655 444.252C468.866 444.064 471.918 450.188 471.503 455.807C470.058 473.106 478.663 472.752 491.119 469.117C498.363 467.096 506.661 469.772 508.803 477.334C509.946 484.182 505.47 490.615 497.666 492.121Z" fill="#FEFEFE"/>
</g>
</svg>
