<svg width="597" height="134" viewBox="0 0 597 134" fill="none" xmlns="http://www.w3.org/2000/svg">
<path d="M28.8566 133.67C27.8019 133.67 25.4582 133.436 21.8254 132.967C18.1926 132.498 14.2082 129.627 9.87225 124.354C5.30194 118.611 3.01678 111.873 3.01678 104.139C3.01678 97.5762 4.80389 91.6875 8.37811 86.4727C9.66718 87.7031 12.0988 89.5488 15.673 92.0098L20.507 95.3496C20.0383 97.459 19.8039 99.7734 19.8039 102.293C19.8039 103.348 19.8918 105.135 20.0676 107.654C20.3019 110.115 21.298 112.576 23.0558 115.037C24.2863 116.736 25.9269 117.586 27.9777 117.586C28.9152 117.586 29.9113 117.41 30.966 117.059C35.9465 114.949 38.4367 110.35 38.4367 103.26C38.4367 97.2832 35.9465 91.2773 30.966 85.2422C28.0363 81.7266 24.8137 78.2988 21.298 74.959C17.841 71.6191 14.5598 68.0742 11.4543 64.3242C4.48163 56.1211 0.9953 46.9512 0.9953 36.8145C0.9953 30.3105 2.72382 24.2461 6.18085 18.6211C9.34491 13.4648 13.4172 9.71484 18.3976 7.37109C21.3859 5.96484 24.4914 5.26172 27.7141 5.26172C29.9406 5.26172 32.2551 5.61328 34.6574 6.31641C41.1027 8.36719 46.1711 12.5859 49.8625 18.9727C52.8508 24.1289 54.3449 29.666 54.3449 35.584C54.3449 36.9902 54.257 38.4258 54.0812 39.8906L38.3488 37.166L38.4367 35.4961C38.4367 33.0352 37.7336 30.6621 36.3273 28.377C34.3351 25.0371 31.4933 23.3672 27.8019 23.3672C25.1652 23.3672 22.7043 24.627 20.4191 27.1465C18.134 29.6074 16.9621 32.8887 16.9035 36.9902C17.1379 42.2051 18.8664 46.9512 22.0891 51.2285C25.3117 55.4473 29.1496 59.6074 33.6027 63.709C37.7043 67.5176 41.5129 71.5898 45.0285 75.9258C48.5441 80.2617 50.9758 85.1836 52.3234 90.6914C53.5539 94.6172 54.1691 98.6016 54.1691 102.645C54.1691 105.633 53.5832 109.676 52.4113 114.773C51.2394 119.812 48.0168 124.471 42.7433 128.748C38.466 132.029 33.8371 133.67 28.8566 133.67ZM67.8765 6.14062H83.3453L92.0465 85.8574L100.484 33.5625L119.293 35.1445L126.324 85.1543L134.058 6.14062H149.966L133.795 131.473L119.732 132.176L109.625 65.5547L98.1109 132.879H85.0152L67.8765 6.14062ZM207.531 6.22852L207.883 25.916H176.242V56.5898H205.246L203.312 78.4746H176.242V117.146H207.971V133.318H159.807L159.367 8.51367L207.531 6.22852ZM268.612 6.22852L268.963 25.916H237.323V56.5898H266.327L264.393 78.4746H237.323V117.146H269.051V133.318H220.887L220.448 8.51367L268.612 6.22852ZM281.528 7.19531L334.35 7.54688L332.417 27.0586L316.245 27.4102L315.366 130.242L301.128 132.527L299.897 27.4102H281.528V7.19531ZM348.761 0.339844L360.626 0.164062L359.044 23.543L348.234 23.4551L348.761 0.339844Z" fill="#333333"/>
<path d="M413.621 3.50391H432.078L393.757 79.7051L433.308 131.385L412.742 133.494L393.054 102.82L392.615 133.846H378.377L377.673 5.4375L394.285 4.99805L393.67 48.8555L413.621 3.50391ZM462.572 5.52539L463.188 132.615H449.564C449.213 121.248 448.891 109.91 448.598 98.6016C447.66 67.7227 446.723 36.8438 445.785 5.96484L462.572 5.52539ZM516.182 4.20703L531.123 4.99805L528.838 129.363H515.303L491.661 55.7988L492.188 130.066L478.828 129.979L475.664 9.65625L475.577 6.22852L492.012 6.66797L516.534 80.4961L516.182 4.20703ZM571.374 133.67C570.319 133.67 567.975 133.436 564.343 132.967C560.71 132.498 556.725 129.627 552.389 124.354C547.819 118.611 545.534 111.873 545.534 104.139C545.534 97.5762 547.321 91.6875 550.895 86.4727C552.184 87.7031 554.616 89.5488 558.19 92.0098L563.024 95.3496C562.555 97.459 562.321 99.7734 562.321 102.293C562.321 103.348 562.409 105.135 562.585 107.654C562.819 110.115 563.815 112.576 565.573 115.037C566.804 116.736 568.444 117.586 570.495 117.586C571.432 117.586 572.429 117.41 573.483 117.059C578.464 114.949 580.954 110.35 580.954 103.26C580.954 97.2832 578.464 91.2773 573.483 85.2422C570.554 81.7266 567.331 78.2988 563.815 74.959C560.358 71.6191 557.077 68.0742 553.971 64.3242C546.999 56.1211 543.513 46.9512 543.513 36.8145C543.513 30.3105 545.241 24.2461 548.698 18.6211C551.862 13.4648 555.934 9.71484 560.915 7.37109C563.903 5.96484 567.009 5.26172 570.231 5.26172C572.458 5.26172 574.772 5.61328 577.175 6.31641C583.62 8.36719 588.688 12.5859 592.38 18.9727C595.368 24.1289 596.862 29.666 596.862 35.584C596.862 36.9902 596.774 38.4258 596.598 39.8906L580.866 37.166L580.954 35.4961C580.954 33.0352 580.251 30.6621 578.845 28.377C576.852 25.0371 574.011 23.3672 570.319 23.3672C567.682 23.3672 565.221 24.627 562.936 27.1465C560.651 29.6074 559.479 32.8887 559.421 36.9902C559.655 42.2051 561.384 46.9512 564.606 51.2285C567.829 55.4473 571.667 59.6074 576.12 63.709C580.221 67.5176 584.03 71.5898 587.546 75.9258C591.061 80.2617 593.493 85.1836 594.841 90.6914C596.071 94.6172 596.686 98.6016 596.686 102.645C596.686 105.633 596.1 109.676 594.929 114.773C593.757 119.812 590.534 124.471 585.261 128.748C580.983 132.029 576.354 133.67 571.374 133.67Z" fill="#FF7401"/>
</svg>
